<svg width="260" height="37" viewBox="0 0 260 37" fill="none" xmlns="http://www.w3.org/2000/svg">
<g id="Asset 1 Copy">
<rect id="Rectangle" width="109" height="37" fill="#FF3700"/>
<path id="Path" d="M101 29H80V24.7359L94.75 12.2266H80V8H101V12.2266L86.2833 24.7734H101V29Z" fill="white"/>
<path id="Shape" fill-rule="evenodd" clip-rule="evenodd" d="M9 29V8H30V29H25.7283V20.64H13.2675V29H9ZM13.2675 16.3767H25.7283V12.2674H13.2675V16.3767Z" fill="white"/>
<path id="Path_2" opacity="0.25" d="M71.7625 29H64.2583V24.7625H71.7625V12.2333H64.2583L47.4917 29H38.2333H34V24.7625V12.2333V8H38.2333H45.7375V12.2333H38.2333V24.7625H45.7375L62.5042 8V8H71.7625H76V12.2333V24.7625V29H71.7625V29Z" fill="white"/>
<path id="Path_3" d="M71.7625 8H64.2583V12.2333H71.7625V24.7625H64.2583L47.4917 8H38.2333H34V12.2333V24.7625V29H38.2333H45.7375V24.7625H38.2333V12.2333H45.7375L62.5042 29V29H71.7625H76V24.7625V12.2333V8H71.7625V8Z" fill="white"/>
<path id="Path_4" d="M148 10.4789C148 8.51562 146.404 8 143.668 8C141.039 8 139.18 8.58304 139.18 11.2087H141.222C141.222 9.95935 142.02 9.70154 143.783 9.70154C145.547 9.70154 145.961 9.98314 145.961 10.6376C145.961 12.4303 139 11.6966 139 14.9767V16H147.884V14.2985H141.856C142.355 12.7318 148 13.533 148 10.4789Z" fill="white"/>
<path id="Path_5" d="M158 8H149V9.72549H155.049L149 14.2745V16H158V14.2745H151.939L158 9.72549V8V8Z" fill="white"/>
<path id="Shape_2" fill-rule="evenodd" clip-rule="evenodd" d="M127 8H129.061H137V16H134.943V13.2448H129.061V16H127V8ZM129.061 11.5113H134.943V9.73756H129.061V11.5113Z" fill="white"/>
<path id="Shape_3" fill-rule="evenodd" clip-rule="evenodd" d="M145.05 21C146.8 21 147.996 22.1578 147.996 23.9387C148.056 25.1161 147.379 26.1997 146.32 26.6241L147.737 29H145.414L144.172 26.8613H140.978V29H139V21H145.05ZM140.99 25.1447H144.512L144.485 25.1367L144.497 25.1367C145.105 25.1367 146.003 25.1368 146.003 23.9387C146.003 22.7327 145.078 22.7327 144.485 22.7327H140.99V25.1447Z" fill="white"/>
<path id="Path_6" d="M154.018 22.6774C155.728 22.6774 156.72 23.1662 156.916 24.4213H159C158.799 22.1769 157.198 21 154.018 21C150.505 21 149 22.4115 149 24.9883C149 27.565 150.505 29 154.018 29C157.198 29 158.799 27.827 159 25.5552H156.916C156.72 26.8221 155.712 27.3226 154.018 27.3226C151.943 27.3226 151.051 26.5875 151.051 24.9765C151.051 23.3656 151.931 22.6774 154.018 22.6774Z" fill="white"/>
<path id="Path_7" d="M168.869 24.1292H162.127V21H160V29H162.127V25.8668H168.869V29H171V21H168.869V24.1292V24.1292Z" fill="white"/>
<rect id="Rectangle_2" x="173" y="21" width="2" height="8" fill="white"/>
<path id="Path_8" d="M175 22.7215H178.953V29H181.047V22.7215H185V21H175V22.7215V22.7215Z" fill="white"/>
<path id="Path_9" d="M187 29H195V27.363H188.945V25.7421H195V24.2579H188.945V22.633H195V21H187V29V29Z" fill="white"/>
<path id="Path_10" d="M201.018 22.6774C202.728 22.6774 203.72 23.1662 203.912 24.4213H206C205.795 22.1769 204.202 21 201.018 21C197.505 21 196 22.4115 196 24.9883C196 27.565 197.505 29 201.018 29C204.202 29 205.795 27.827 206 25.5552H203.912C203.72 26.8221 202.708 27.3226 201.018 27.3226C198.943 27.3226 198.051 26.5875 198.051 24.9765C198.051 23.3656 198.931 22.6774 201.018 22.6774Z" fill="white"/>
<path id="Path_11" d="M207 22.7215H210.953V29H213.047V22.7215H217V21H207V22.7215V22.7215Z" fill="white"/>
<path id="Path_12" d="M225.953 24.9326C225.953 26.0268 225.645 27.3112 223.002 27.3112C220.359 27.3112 220.047 26.0505 220.047 24.9326V21H218V24.9326C218 27.6838 219.499 29 223.002 29C226.505 29 228 27.672 228 24.9326V21H225.953V24.9326Z" fill="white"/>
<path id="Shape_4" fill-rule="evenodd" clip-rule="evenodd" d="M235.05 21C236.8 21 237.996 22.1578 237.996 23.9387C238.058 25.111 237.391 26.193 236.339 26.6241L237.756 29H235.433L234.191 26.8613H230.997V29H229V21H235.05ZM230.997 25.1447H234.512L234.501 25.1367L234.512 25.1367C235.105 25.1367 236.037 25.1368 236.037 23.9387C236.037 22.7327 235.112 22.7327 234.52 22.7327H230.997V25.1447Z" fill="white"/>
<path id="Path_13" d="M253.998 27.2745V21H252V29H260V27.2745H253.998V27.2745Z" fill="white"/>
<path id="Shape_5" fill-rule="evenodd" clip-rule="evenodd" d="M127 21H129.061H137V29H134.943V26.2462H129.061V29H127V21ZM129.061 24.5095H134.943V22.7367H129.061V24.5095Z" fill="white"/>
<path id="Shape_6" fill-rule="evenodd" clip-rule="evenodd" d="M240 21H242.058H250V29H247.942V26.2462H242.058V29H240V21ZM242.058 24.5095H247.942V22.7367H242.058V24.5095Z" fill="white"/>
</g>
</svg>
