<svg width="16" height="13" viewBox="0 0 16 13" fill="none" xmlns="http://www.w3.org/2000/svg">
<g id="Group 2">
<g id="Tiwtter">
<path id="Fill-1" d="M13.3791 2.04384C14.0215 1.64001 14.5148 1.00056 14.7472 0.23857C14.1459 0.612549 13.4801 0.884075 12.7713 1.03039C12.2037 0.396219 11.3951 0 10.5001 0C8.78174 0 7.38862 1.4609 7.38862 3.26291C7.38862 3.51865 7.41614 3.76769 7.46919 4.00654C4.88325 3.87043 2.59053 2.5714 1.05591 0.597201C0.788075 1.07913 0.634607 1.63964 0.634607 2.23765C0.634607 3.36974 1.1839 4.3685 2.01881 4.95365C1.50876 4.93669 1.02899 4.78991 0.609518 4.5455C0.609221 4.55911 0.609221 4.57278 0.609221 4.58653C0.609221 6.16749 1.68178 7.48628 3.10514 7.78611C2.84409 7.86063 2.56917 7.90064 2.2854 7.90064C2.0849 7.90064 1.88999 7.88014 1.69997 7.84199C2.09594 9.13828 3.24501 10.0818 4.60659 10.1081C3.5417 10.9833 2.20006 11.5049 0.74225 11.5049C0.491092 11.5049 0.243428 11.4895 0 11.4592C1.37698 12.3851 3.01252 12.9253 4.76965 12.9253C10.4928 12.9253 13.6225 7.9532 13.6225 3.64123C13.6225 3.49977 13.6194 3.35905 13.6135 3.21908C14.2215 2.75905 14.749 2.18438 15.1661 1.53004C14.6081 1.78956 14.0085 1.96497 13.3791 2.04384Z" fill="white"/>
</g>
</g>
</svg>
